/* XPM */
static char * check_black_xpm[] = {
"8 8 2 1",
" 	c none",
"X	c black",
"       X",
"      XX",
"     XXX",
"X   XXX ",
"XX XXX  ",
"XXXXX   ",
" XXX    ",
"  X     "};
