/* XPM */
static char *pointer_xpm[] = {
"11 17 3 1",
"  c none",
". c white",
"# c black",
"##         ",
"#.#        ",
"#..#       ",
"#...#      ",
"#....#     ",
"#.....#    ",
"#......#   ",
"#.......#  ",
"#........# ",
"#.....###  ",
"#..#..#    ",
"#.##..#    ",
"#.# #..#   ",
"##  #..#   ",
"     #..#  ",
"     #..#  ",
"      ###  "};
