/* XPM */
static char * play_xpm[] = {
"10 11 3 1",
" 	c none",
"X	c black",
"o	c green",
"XX        ",
"XoXX      ",
"XoooXX    ",
"XoooooXX  ",
"XoooooooXX",
"Xoooooooo ",
"Xoooooo   ",
"Xoooo     ",
"Xooo      ",
"Xo        ",
"X         "};
