/* XPM */
static char *dia_info[] = {
"32 32 6 1 ",
"0	c black",
"a	c darkgrey",
"A	c grey",
"B	c blue",
"W	c white",
" 	c none",
"           aaaaaaaa             ",
"        aaaAWWWWWWAaaa          ",
"      aaAWWWWWWWWWWWWAaa        ",
"     aAWWWWWWWWWWWWWWWWAa       ",
"    aWWWWWWWABBBBAWWWWWWW0      ",
"   aWWWWWWWWBBBBBBWWWWWWWW0     ",
"  aWWWWWWWWWBBBBBBWWWWWWWWW0    ",
" aAWWWWWWWWWABBBBAWWWWWWWWWA0   ",
" aWWWWWWWWWWWWWWWWWWWWWWWWWW0a  ",
"aAWWWWWWWWWWWWWWWWWWWWWWWWWWA0a ",
"aWWWWWWWWWWBBBBBBBWWWWWWWWWWW0a ",
"aWWWWWWWWWWWWBBBBBWWWWWWWWWWW0aa",
"aWWWWWWWWWWWWBBBBBWWWWWWWWWWW0aa",
"aWWWWWWWWWWWWBBBBBWWWWWWWWWWW0aa",
"aWWWWWWWWWWWWBBBBBWWWWWWWWWWW0aa",
"aAWWWWWWWWWWWBBBBBWWWWWWWWWWA0aa",
" aWWWWWWWWWWWBBBBBWWWWWWWWWW0aaa",
" aAWWWWWWWWWWBBBBBWWWWWWWWWA0aaa",
"  aWWWWWWWWBBBBBBBBBWWWWWWW0aaa ",
"   0WWWWWWWWWWWWWWWWWWWWWW0aaaa ",
"    0WWWWWWWWWWWWWWWWWWWW0aaaa  ",
"     0AWWWWWWWWWWWWWWWWA0aaaa   ",
"      00AWWWWWWWWWWWWA00aaaa    ",
"       a000AWWWWWWA000aaaaa     ",
"        aaa000AWWW0aaaaaaa      ",
"          aaaa0WWW0aaaaa        ",
"             a0WWW0aa           ",
"               0WW0aa           ",
"                0W0aa           ",
"                 00aa           ",
"                  aaa           ",
"                   aa           "};
