/* XPM */
static char * kill_xpm[] = {
"7 6 2 1",
" 	c none",
"x	c black",
"xx   xx",
" xx xx ",
"  xxx  ",
"  xxx  ",
" xx xx ",
"xx   xx"};
