/* XPM */
static char *dia_stop[] = {
"32 32 6 1 ",
"0	c black",
"r	c darkred",
"a	c darkgrey",
"R	c red",
"W	c white",
" 	c none",
"           rrrrrrrr             ",
"        rrrRRRRRRRRrrr          ",
"       rRRRRRRRRRRRRRRr         ",
"     rrRRRRRRRRRRRRRRRRrr       ",
"    rRRRRRRRRRRRRRRRRRRRRr      ",
"   rRRRRRRRRRRRRRRRRRRRRRRr     ",
"   rRRRRRRRRRRRRRRRRRRRRRRra    ",
"  rRRRRRRWRRRRRRRRRRWRRRRRRra   ",
" rRRRRRRWWWRRRRRRRRWWWRRRRRRr   ",
" rRRRRRWWWWWRRRRRRWWWWWRRRRRra  ",
" rRRRRRRWWWWWRRRRWWWWWRRRRRRraa ",
"rRRRRRRRRWWWWWRRWWWWWRRRRRRRRra ",
"rRRRRRRRRRWWWWWWWWWWRRRRRRRRRra ",
"rRRRRRRRRRRWWWWWWWWRRRRRRRRRRraa",
"rRRRRRRRRRRRWWWWWWRRRRRRRRRRRraa",
"rRRRRRRRRRRRWWWWWWRRRRRRRRRRRraa",
"rRRRRRRRRRRWWWWWWWWRRRRRRRRRRraa",
"rRRRRRRRRRWWWWWWWWWWRRRRRRRRRraa",
"rRRRRRRRRWWWWWRRWWWWWRRRRRRRRraa",
" rRRRRRRWWWWWRRRRWWWWWRRRRRRraaa",
" rRRRRRWWWWWRRRRRRWWWWWRRRRRraaa",
" rRRRRRRWWWRRRRRRRRWWWRRRRRRraa ",
"  rRRRRRRWRRRRRRRRRRWRRRRRRraaa ",
"   rRRRRRRRRRRRRRRRRRRRRRRraaaa ",
"   rRRRRRRRRRRRRRRRRRRRRRRraaa  ",
"    rRRRRRRRRRRRRRRRRRRRRraaa   ",
"     rrRRRRRRRRRRRRRRRRrraaaa   ",
"      arRRRRRRRRRRRRRRraaaaa    ",
"       arrrRRRRRRRRrrraaaaa     ",
"         aarrrrrrrraaaaaa       ",
"          aaaaaaaaaaaaaa        ",
"             aaaaaaaa           "};
