#define watch_mask_width 16
#define watch_mask_height 16
static unsigned char watch_mask_bits[] = {
  0xfc, 0x0f, 0xfc, 0x0f, 0xfc, 0x0f, 0xfe, 0x1f, 0xff, 0x3f, 0xff, 0xff,
  0xff, 0xff, 0xff, 0xff, 0xff, 0xff, 0xff, 0xff, 0xff, 0xff, 0xff, 0x3f,
  0xfe, 0x1f, 0xfc, 0x0f, 0xfc, 0x0f, 0xfc, 0x0f, };
