/* XPM */
static char *watch_xpm[] = {
"16 16 3 1",
". c white",
"# c black",
"  c none",
"  .########.    ",
"  .########.    ",
"  .########.    ",
" .##########.   ",
".##....#...##.  ",
"##.....#....##. ",
"#......#.....###",
"#.....###....###",
"#.....###....###",
"#....#.......###",
"##..#.......##. ",
".##........##.  ", 
" .##########.   ",
"  .########.    ",
"  .########.    ",
"  .########.    "
};
