/* XPM */
static char * up_xpm[] = {
"7 4 2 1",
" 	c none",
"X	c black",
"   X   ",
"  XXX  ",
" XXXXX ",
"XXXXXXX"};
