/* XPM */
static char * radio1_xpm[] = {
"12 12 4 1",
" 	c none",
".	c darkgrey",
"X	c black",
"o	c white",
"    ....    ",
"  ..XXXX..  ",
" .XXooooXXo ",
" .Xoooooo o ",
".Xoooooooo o",
".Xoooooooo o",
".Xoooooooo o",
".Xoooooooo o",
" .Xoooooo o ",
" .  oooo  o ",
"  oo    oo  ",
"    oooo    "};
