#define watch_width 16
#define watch_height 16
static unsigned char watch_bits[] = {
  0xf8, 0x07, 0xf8, 0x07, 0xf8, 0x07, 0xfc, 0x0f, 0x86, 0x18, 0x83, 0x30,
  0x81, 0xe0, 0xc1, 0xe1, 0xc1, 0xe1, 0x21, 0xe0, 0x13, 0x30, 0x06, 0x18,
  0xfc, 0x0f, 0xf8, 0x07, 0xf8, 0x07, 0xf8, 0x07, };
